<?xml version="1.0" encoding="utf-8"?>
<!-- Generator: Adobe Illustrator 18.1.1, SVG Export Plug-In . SVG Version: 6.00 Build 0)  -->
<svg version="1.1" id="Layer_1" xmlns="http://www.w3.org/2000/svg" xmlns:xlink="http://www.w3.org/1999/xlink" x="0px" y="0px"
	 viewBox="-1858.6 60.2 700.2 169.1" enable-background="new -1858.6 60.2 700.2 169.1" xml:space="preserve">
<g>
	<path d="M-1840.8,200.6h-12.8l28.8-80h13.9l28.8,80h-12.8l-22.6-65.5h-0.6L-1840.8,200.6z M-1838.6,169.3h41.6v10.2h-41.6V169.3z"
		/>
	<path d="M-1747.2,224.3c-4.8,0-8.9-0.6-12.3-1.9c-3.4-1.3-6.2-2.9-8.4-5c-2.2-2.1-3.8-4.3-4.8-6.8l10-4.1c0.7,1.1,1.6,2.4,2.8,3.7
		c1.2,1.3,2.8,2.4,4.8,3.3c2,0.9,4.7,1.4,7.9,1.4c4.4,0,8.1-1.1,11-3.2s4.3-5.6,4.3-10.3v-11.8h-0.7c-0.7,1.3-1.7,2.7-3,4.3
		c-1.3,1.6-3.1,2.9-5.4,4.1c-2.3,1.1-5.3,1.7-8.9,1.7c-4.7,0-9-1.1-12.8-3.3c-3.8-2.2-6.8-5.5-9-9.9c-2.2-4.4-3.3-9.7-3.3-16.1
		s1.1-11.8,3.3-16.4c2.2-4.6,5.2-8.1,9-10.5s8.1-3.7,12.9-3.7c3.7,0,6.7,0.6,9,1.9c2.3,1.2,4.1,2.7,5.4,4.3s2.3,3.1,3,4.3h0.9v-9.7
		h11.4v61.3c0,5.2-1.2,9.4-3.6,12.7s-5.6,5.8-9.7,7.3C-1737.5,223.5-1742.1,224.3-1747.2,224.3z M-1747.4,190c3.4,0,6.2-0.8,8.5-2.4
		c2.3-1.6,4.1-3.8,5.3-6.8c1.2-3,1.8-6.5,1.8-10.6c0-4-0.6-7.6-1.8-10.7c-1.2-3.1-3-5.5-5.3-7.2c-2.3-1.7-5.2-2.6-8.6-2.6
		c-3.5,0-6.4,0.9-8.8,2.7c-2.3,1.8-4.1,4.3-5.3,7.4c-1.2,3.1-1.8,6.6-1.8,10.4c0,3.9,0.6,7.4,1.8,10.4c1.2,3,3,5.3,5.3,7
		C-1753.7,189.2-1750.8,190-1747.4,190z"/>
	<path d="M-1704.5,200.6v-60h11.3v9.5h0.6c1.1-3.2,3-5.8,5.8-7.6c2.8-1.9,5.9-2.8,9.4-2.8c0.7,0,1.6,0,2.6,0.1
		c1,0.1,1.8,0.1,2.4,0.2v11.2c-0.5-0.1-1.3-0.3-2.5-0.4c-1.2-0.2-2.4-0.3-3.6-0.3c-2.8,0-5.2,0.6-7.4,1.7c-2.1,1.2-3.8,2.8-5.1,4.8
		s-1.9,4.4-1.9,7v36.6H-1704.5z"/>
	<path d="M-1639.1,201.8c-5.6,0-10.5-1.3-14.7-3.9c-4.2-2.6-7.4-6.2-9.8-10.8c-2.3-4.6-3.5-10.1-3.5-16.3c0-6.2,1.2-11.7,3.5-16.3
		c2.3-4.7,5.6-8.3,9.8-10.9c4.2-2.6,9.1-3.9,14.7-3.9c5.6,0,10.5,1.3,14.7,3.9c4.2,2.6,7.4,6.2,9.8,10.9c2.3,4.7,3.5,10.1,3.5,16.3
		c0,6.2-1.2,11.6-3.5,16.3c-2.3,4.6-5.6,8.2-9.8,10.8C-1628.6,200.5-1633.5,201.8-1639.1,201.8z M-1639.1,192c3.6,0,6.7-1,9.1-2.9
		c2.4-1.9,4.2-4.5,5.3-7.7c1.2-3.2,1.7-6.7,1.7-10.6c0-3.8-0.6-7.4-1.7-10.6c-1.2-3.2-2.9-5.8-5.3-7.8c-2.4-2-5.4-2.9-9.1-2.9
		c-3.7,0-6.7,1-9.1,2.9c-2.4,2-4.2,4.5-5.4,7.8c-1.2,3.2-1.7,6.7-1.7,10.6c0,3.9,0.6,7.4,1.7,10.6c1.2,3.2,2.9,5.8,5.4,7.7
		C-1645.8,191-1642.8,192-1639.1,192z"/>
	<path d="M-1530.8,146.6h-12.2c-0.5-2.6-1.3-4.9-2.6-6.9c-1.3-2-2.8-3.7-4.7-5c-1.8-1.4-3.9-2.4-6.2-3.1c-2.3-0.7-4.7-1.1-7.2-1.1
		c-4.6,0-8.7,1.2-12.4,3.5c-3.6,2.3-6.5,5.7-8.6,10.2c-2.1,4.5-3.1,9.9-3.1,16.4c0,6.5,1,12,3.1,16.5c2.1,4.5,5,7.9,8.6,10.2
		c3.6,2.3,7.7,3.4,12.3,3.4c2.5,0,4.9-0.3,7.2-1c2.3-0.7,4.3-1.7,6.2-3.1c1.8-1.4,3.4-3,4.7-5c1.3-2,2.2-4.2,2.7-6.8l12.2,0
		c-0.7,3.9-1.9,7.5-3.8,10.8c-1.9,3.3-4.2,6.1-7.1,8.5c-2.9,2.4-6.2,4.2-9.9,5.5c-3.7,1.3-7.8,2-12.2,2c-6.9,0-13.1-1.6-18.5-4.9
		s-9.7-8-12.8-14.2c-3.1-6.1-4.7-13.5-4.7-22c0-8.5,1.6-15.9,4.7-22c3.1-6.1,7.4-10.8,12.8-14.1s11.6-4.9,18.5-4.9
		c4.2,0,8.2,0.6,11.9,1.8c3.7,1.2,7,3,9.9,5.3c2.9,2.3,5.4,5.2,7.3,8.5C-1532.7,138.5-1531.4,142.3-1530.8,146.6z"/>
	<path d="M-1439.3,165v35.6h-11.7v-60h11.2v9.8h0.7c1.4-3.2,3.5-5.7,6.5-7.7c3-1.9,6.7-2.9,11.2-2.9c4.1,0,7.7,0.9,10.7,2.6
		c3.1,1.7,5.5,4.2,7.1,7.6s2.5,7.5,2.5,12.5v38.2h-11.7v-36.8c0-4.3-1.1-7.8-3.4-10.2c-2.3-2.5-5.4-3.7-9.3-3.7
		c-2.7,0-5.1,0.6-7.2,1.8c-2.1,1.2-3.8,2.9-5,5.1S-1439.3,161.8-1439.3,165z"/>
	<path d="M-1373.6,165v35.6h-11.7v-60h11.2v9.8h0.7c1.4-3.2,3.5-5.7,6.5-7.7c3-1.9,6.7-2.9,11.2-2.9c4.1,0,7.7,0.9,10.7,2.6
		c3.1,1.7,5.5,4.2,7.1,7.6s2.5,7.5,2.5,12.5v38.2h-11.7v-36.8c0-4.3-1.1-7.8-3.4-10.2c-2.3-2.5-5.4-3.7-9.3-3.7
		c-2.7,0-5.1,0.6-7.2,1.8c-2.1,1.2-3.8,2.9-5,5.1S-1373.6,161.8-1373.6,165z"/>
	<path d="M-1293.7,201.8c-5.9,0-11-1.3-15.3-3.8c-4.3-2.5-7.5-6.1-9.8-10.7s-3.5-10-3.5-16.3c0-6.1,1.2-11.6,3.5-16.3
		c2.3-4.7,5.5-8.3,9.7-11c4.2-2.6,9-3.9,14.6-3.9c3.4,0,6.7,0.6,9.8,1.7c3.2,1.1,6,2.9,8.6,5.3c2.5,2.4,4.5,5.5,6,9.3
		c1.5,3.8,2.2,8.4,2.2,13.9v4.1h-47.7v-8.8h36.3c0-3.1-0.6-5.8-1.9-8.2c-1.3-2.4-3-4.3-5.3-5.6c-2.3-1.4-4.9-2.1-7.9-2.1
		c-3.3,0-6.1,0.8-8.6,2.4s-4.3,3.7-5.6,6.3c-1.3,2.6-2,5.3-2,8.3v6.8c0,4,0.7,7.4,2.1,10.2c1.4,2.8,3.4,5,6,6.4
		c2.6,1.5,5.5,2.2,8.9,2.2c2.2,0,4.2-0.3,6.1-1c1.8-0.6,3.4-1.6,4.7-2.9s2.3-2.9,3-4.7l11.1,2c-0.9,3.3-2.5,6.1-4.7,8.5
		c-2.3,2.4-5.1,4.3-8.6,5.7S-1289.3,201.8-1293.7,201.8z"/>
	<path d="M-1229.7,201.8c-5.8,0-10.8-1.3-15-4c-4.2-2.6-7.4-6.3-9.6-11c-2.2-4.7-3.4-10-3.4-16c0-6.1,1.1-11.5,3.4-16.2
		c2.3-4.7,5.5-8.3,9.7-11c4.2-2.6,9.1-3.9,14.7-3.9c4.6,0,8.6,0.8,12.2,2.5c3.6,1.7,6.5,4,8.7,7.1c2.2,3,3.5,6.6,3.9,10.6h-11.4
		c-0.6-2.8-2.1-5.2-4.3-7.3c-2.2-2-5.2-3-8.9-3c-3.3,0-6.1,0.9-8.5,2.6c-2.4,1.7-4.3,4.1-5.7,7.3c-1.4,3.1-2,6.8-2,11.1
		c0,4.4,0.7,8.2,2,11.3c1.3,3.2,3.2,5.6,5.6,7.4c2.4,1.7,5.3,2.6,8.6,2.6c2.2,0,4.2-0.4,6-1.2c1.8-0.8,3.3-2,4.6-3.5
		s2.1-3.4,2.6-5.5h11.4c-0.4,3.9-1.7,7.3-3.8,10.4s-4.9,5.4-8.5,7.2C-1220.8,200.9-1225,201.8-1229.7,201.8z"/>
	<path d="M-1164.5,140.6v9.4h-32.8v-9.4H-1164.5z M-1188.5,126.2h11.7V183c0,2.3,0.3,4,1,5.1c0.7,1.1,1.6,1.9,2.6,2.3
		c1.1,0.4,2.3,0.6,3.5,0.6c0.9,0,1.8-0.1,2.5-0.2c0.7-0.1,1.3-0.2,1.6-0.3l2.1,9.6c-0.7,0.3-1.6,0.5-2.9,0.8s-2.8,0.4-4.7,0.4
		c-3.1,0.1-5.9-0.5-8.6-1.6s-4.8-2.9-6.4-5.3c-1.6-2.4-2.5-5.4-2.5-9V126.2z"/>
	<path d="M-1459.9,79c-4.9,0-9.6,0.9-14.1,2.8s-8.5,4.5-11.9,8c-0.5,0.5-1,1-1.5,1.5c-0.5,0.5-0.9,1-1.3,1.5c-0.8-3.2-2-6.2-3.6-9
		c-1.6-2.8-3.5-5.4-5.9-7.8c-3.4-3.4-7.4-6.1-11.9-8s-9.2-2.8-14-2.8h-9.2v9.2c0,4.9,0.9,9.6,2.7,14.1c1.8,4.5,4.5,8.5,7.9,11.9
		s7.4,6.1,11.9,8c4.5,1.9,9.2,2.8,14.1,2.8v29c-3.8,0.5-7.1,1.7-10.1,3.5c-4.2,2.6-7.4,6.2-9.8,10.9c-2.3,4.7-3.5,10.1-3.5,16.3
		c0,6.2,1.2,11.6,3.5,16.3c2.3,4.6,5.6,8.2,9.8,10.8c4.2,2.6,9.1,3.9,14.7,3.9c5.6,0,10.5-1.3,14.7-3.9c4.2-2.6,7.4-6.2,9.8-10.8
		c2.3-4.6,3.5-10.1,3.5-16.3c0-6.2-1.2-11.7-3.5-16.3c-2.3-4.7-5.6-8.3-9.8-10.9c-3-1.9-6.4-3-10.1-3.5v-15.4c4.9,0,9.6-0.9,14-2.7
		c4.5-1.8,8.4-4.5,11.8-7.9c3.4-3.4,6.1-7.4,8-11.9c1.9-4.5,2.8-9.2,2.8-14.1V79H-1459.9z M-1507.1,99.8c-3.4-1.4-6.3-3.4-8.9-6
		c-2.6-2.6-4.6-5.6-6-8.9c-1.4-3.4-2.1-6.9-2.1-10.5c3.7,0,7.2,0.7,10.5,2.1c3.3,1.4,6.3,3.4,8.9,6c2.6,2.6,4.6,5.6,6,8.9
		c1.4,3.3,2.1,6.8,2.1,10.5C-1500.2,101.9-1503.7,101.2-1507.1,99.8z M-1477.5,160.3c1.2,3.2,1.7,6.7,1.7,10.6
		c0,3.9-0.6,7.4-1.7,10.6s-2.9,5.8-5.3,7.7c-2.4,1.9-5.4,2.9-9.1,2.9c-3.7,0-6.7-1-9.1-2.9c-2.4-1.9-4.2-4.5-5.4-7.7
		c-1.2-3.2-1.7-6.7-1.7-10.6c0-3.8,0.6-7.4,1.7-10.6c1.2-3.2,2.9-5.8,5.4-7.8c2.4-2,5.5-2.9,9.1-2.9c3.6,0,6.7,1,9.1,2.9
		C-1480.5,154.5-1478.7,157-1477.5,160.3z M-1462,98.6c-1.4,3.4-3.4,6.3-6,8.9c-2.6,2.6-5.6,4.6-8.9,6c-3.3,1.4-6.8,2.1-10.5,2.1
		c0-3.7,0.7-7.2,2.1-10.5c1.4-3.3,3.4-6.3,6-8.9s5.6-4.6,8.9-6c3.4-1.4,6.9-2.1,10.5-2.1C-1459.9,91.8-1460.6,95.3-1462,98.6z"/>
</g>
</svg>
