<?xml version="1.0" encoding="utf-8"?>
<!-- Generator: Adobe Illustrator 18.1.1, SVG Export Plug-In . SVG Version: 6.00 Build 0)  -->
<svg version="1.1" id="Layer_1" xmlns="http://www.w3.org/2000/svg" xmlns:xlink="http://www.w3.org/1999/xlink" x="0px" y="0px"
	 viewBox="-457.3 -430.7 382.7 382.7" enable-background="new -457.3 -430.7 382.7 382.7" xml:space="preserve">
<circle fill="#84CC16" cx="-266" cy="-239.3" r="191.3"/>
<path d="M-278.1-130.8V-227c-12.9,0-25.2-2.5-37.1-7.4c-11.9-4.9-22.3-11.9-31.4-21s-16-19.5-20.8-31.4c-4.8-11.9-7.2-24.2-7.2-37.1
	v-24.1h24.1c12.7,0,24.9,2.5,36.8,7.4c11.9,4.9,22.3,11.9,31.4,21c6.2,6.2,11.4,13.1,15.5,20.5c4.1,7.4,7.3,15.4,9.5,23.8
	c1-1.4,2.1-2.8,3.3-4.1c1.2-1.3,2.5-2.7,3.9-4.1c9-9,19.5-16,31.4-21s24.2-7.4,37.1-7.4h24.1v24.1c0,12.9-2.5,25.2-7.4,37.1
	s-11.9,22.3-21,31.4s-19.5,16-31.2,20.8c-11.8,4.8-24.1,7.2-36.9,7.2v60.3H-278.1z"/>
</svg>
